<?xml version="1.0" encoding="UTF-8"?>
<!DOCTYPE svg PUBLIC "-//W3C//DTD SVG 1.1//EN" "http://www.w3.org/Graphics/SVG/1.1/DTD/svg11.dtd">
<svg xmlns="http://www.w3.org/2000/svg" version="1.1" width="1280px" height="1024px" style="shape-rendering:geometricPrecision; text-rendering:geometricPrecision; image-rendering:optimizeQuality; fill-rule:evenodd; clip-rule:evenodd" xmlns:xlink="http://www.w3.org/1999/xlink">
<g><path style="opacity:0.779" fill="#0b0906" d="M 841.5,1023.5 C 839.833,1023.5 838.167,1023.5 836.5,1023.5C 837.092,1010.72 836.258,998.053 834,985.5C 829.819,965.434 823.485,946.1 815,927.5C 809.42,920.008 804.087,912.341 799,904.5C 791.953,899.154 784.787,893.987 777.5,889C 764.881,882.525 751.881,876.859 738.5,872C 722.338,871.002 708.838,864.502 698,852.5C 694.69,847.194 690.69,842.527 686,838.5C 681.032,827.955 676.365,817.288 672,806.5C 670.599,798.585 670.099,790.585 670.5,782.5C 670.5,782.167 670.5,781.833 670.5,781.5C 673.833,780.833 677.167,780.167 680.5,779.5C 689.957,779.052 698.957,776.885 707.5,773C 723.363,765.47 734.863,753.636 742,737.5C 742.117,732.119 743.284,727.119 745.5,722.5C 750.061,718.961 754.561,715.295 759,711.5C 769.391,699.711 779.057,687.377 788,674.5C 792.578,664.872 796.244,654.872 799,644.5C 800.304,638.577 800.804,632.577 800.5,626.5C 803.044,626.104 805.211,626.771 807,628.5C 808.421,632.979 810.088,637.313 812,641.5C 814.315,629.933 814.981,618.267 814,606.5C 809.724,603.967 808.557,600.467 810.5,596C 814.734,595.519 818.234,597.019 821,600.5C 823.067,603.726 824.9,607.06 826.5,610.5C 827.192,609.975 827.692,609.308 828,608.5C 831.13,592.678 826.463,579.678 814,569.5C 813.506,567.866 813.34,566.199 813.5,564.5C 819.766,564.615 825.099,562.615 829.5,558.5C 831.384,558.288 832.717,557.288 833.5,555.5C 824.419,554.467 816.086,551.634 808.5,547C 798.863,537.208 789.863,527.041 781.5,516.5C 782.833,515.833 784.167,515.167 785.5,514.5C 801.339,504.483 810.505,490.15 813,471.5C 814.502,459.155 815.002,446.822 814.5,434.5C 816.199,434.34 817.866,434.506 819.5,435C 821.7,437.234 823.533,439.734 825,442.5C 824.998,433.475 824.332,424.475 823,415.5C 821.194,411.082 819.194,406.749 817,402.5C 812.795,399.15 809.629,395.15 807.5,390.5C 811.249,390.751 814.915,391.417 818.5,392.5C 818.768,390.901 818.434,389.568 817.5,388.5C 816.401,382.301 813.734,376.968 809.5,372.5C 787.169,346.461 759.836,339.627 727.5,352C 722.044,356.784 716.044,360.784 709.5,364C 702.806,370.562 697.473,378.062 693.5,386.5C 690.779,390.675 689.446,395.341 689.5,400.5C 688.833,401.167 688.167,401.833 687.5,402.5C 678.943,397.668 670.276,392.835 661.5,388C 659.19,387.503 656.857,387.337 654.5,387.5C 653.959,384.348 654.959,381.848 657.5,380C 662.751,379.271 667.751,377.771 672.5,375.5C 671.252,373.541 669.585,372.041 667.5,371C 662.113,367.759 656.446,365.092 650.5,363C 642.419,362.361 634.419,361.195 626.5,359.5C 622.436,359.779 618.436,360.446 614.5,361.5C 610.62,359.347 610.62,356.847 614.5,354C 621.376,349.735 628.043,345.235 634.5,340.5C 631.914,339.52 629.247,339.187 626.5,339.5C 622.681,338.834 618.681,338.501 614.5,338.5C 608.26,338.333 602.26,339 596.5,340.5C 585.426,343.138 575.259,347.805 566,354.5C 565.153,356.193 564.32,357.86 563.5,359.5C 562.5,359.5 561.5,359.5 560.5,359.5C 560.666,353.158 560.5,346.825 560,340.5C 559.122,336.948 557.956,333.614 556.5,330.5C 556.204,328.597 555.537,326.93 554.5,325.5C 553.292,322.956 551.292,321.622 548.5,321.5C 547.944,325.961 546.777,330.294 545,334.5C 540.326,339.87 536.16,345.537 532.5,351.5C 518.858,365.965 503.525,378.465 486.5,389C 479.062,396.447 471.062,403.114 462.5,409C 461.001,411.328 459.334,413.495 457.5,415.5C 450.23,423.272 442.73,430.938 435,438.5C 429.556,445.715 426.056,453.715 424.5,462.5C 424.793,465.611 425.793,468.444 427.5,471C 427.167,471.833 426.833,472.667 426.5,473.5C 426.001,470.783 424.835,468.449 423,466.5C 423.435,462.144 421.935,458.81 418.5,456.5C 414.676,453.176 411.009,449.676 407.5,446C 401.892,442.724 396.558,439.057 391.5,435C 387.082,433.194 382.749,431.194 378.5,429C 372.704,428.726 367.037,427.726 361.5,426C 348.68,423.782 336.68,425.782 325.5,432C 321.102,435.394 316.435,438.394 311.5,441C 309.627,442.704 307.96,444.537 306.5,446.5C 290.575,459.681 280.241,476.348 275.5,496.5C 274.352,500.981 274.185,505.648 275,510.5C 277.119,506.545 280.285,503.878 284.5,502.5C 287.085,503.073 288.085,504.739 287.5,507.5C 285.341,510.484 283.675,513.817 282.5,517.5C 280.336,521.83 278.836,526.497 278,531.5C 277.333,538.833 277.333,546.167 278,553.5C 279.667,550.833 281.333,548.167 283,545.5C 284.11,543.963 285.61,543.297 287.5,543.5C 287.333,554.172 287.5,564.839 288,575.5C 289.562,577.957 290.562,580.624 291,583.5C 291.908,585.439 293.408,586.439 295.5,586.5C 294.408,581.877 296.075,580.044 300.5,581C 303.968,588.018 307.801,594.851 312,601.5C 317.72,606.718 322.887,612.384 327.5,618.5C 332.025,622.192 336.692,625.692 341.5,629C 347.5,631.333 353.5,633.667 359.5,636C 363.833,636.667 368.167,636.667 372.5,636C 374.862,634.269 377.529,633.435 380.5,633.5C 379.858,644.456 374.525,652.123 364.5,656.5C 359.456,656.173 354.456,656.506 349.5,657.5C 349.624,658.107 349.957,658.44 350.5,658.5C 356.116,669.144 364.449,672.144 375.5,667.5C 375.519,670.659 374.352,673.326 372,675.5C 371.29,683.938 371.957,692.271 374,700.5C 375.61,702.731 377.443,704.731 379.5,706.5C 381.29,701.749 383.957,697.582 387.5,694C 388.793,693.51 390.127,693.343 391.5,693.5C 391.312,699.888 391.812,706.222 393,712.5C 396.608,718.734 400.441,724.734 404.5,730.5C 405.002,732.085 406.002,732.585 407.5,732C 406.556,729.281 406.223,726.448 406.5,723.5C 406.34,721.801 406.506,720.134 407,718.5C 408.049,717.483 409.216,717.316 410.5,718C 416.42,730.254 425.42,739.588 437.5,746C 453.133,752.485 468.466,759.485 483.5,767C 491.221,768.776 498.888,770.609 506.5,772.5C 509.297,782.534 509.13,792.534 506,802.5C 502.182,808.916 498.848,815.582 496,822.5C 495.667,824.833 495.333,827.167 495,829.5C 488.539,834.955 483.206,841.288 479,848.5C 472.583,853.294 465.75,857.461 458.5,861C 438.982,866.012 420.149,872.845 402,881.5C 393.757,883.415 385.59,885.581 377.5,888C 372.249,890.264 367.249,892.931 362.5,896C 352.36,904.806 342.86,914.306 334,924.5C 326.266,933.636 319.266,943.303 313,953.5C 308.109,962.543 303.942,971.876 300.5,981.5C 300.667,982.167 300.833,982.833 301,983.5C 305.255,981.478 309.755,980.478 314.5,980.5C 307.801,992.061 301.467,1003.89 295.5,1016C 297.582,1015.07 299.915,1014.57 302.5,1014.5C 302.5,1017.5 302.5,1020.5 302.5,1023.5C 300.833,1023.5 299.167,1023.5 297.5,1023.5C 295.444,1022.78 293.277,1022.12 291,1021.5C 290.727,1016.3 291.727,1011.3 294,1006.5C 297.167,1000.83 300.333,995.167 303.5,989.5C 300.841,989.702 298.008,989.368 295,988.5C 294.333,985.833 294.333,983.167 295,980.5C 301.387,965.666 308.72,951.332 317,937.5C 330.874,920.631 345.707,904.798 361.5,890C 373.443,883.839 386.11,879.506 399.5,877C 418.104,868.176 437.438,861.176 457.5,856C 461.674,853.412 466.007,851.079 470.5,849C 476.627,841.205 483.127,833.705 490,826.5C 490.311,821.891 491.978,817.891 495,814.5C 497.117,807.602 499.783,800.936 503,794.5C 504.375,789.103 504.375,783.769 503,778.5C 502.612,777.572 501.945,776.905 501,776.5C 487.117,774.302 474.283,769.469 462.5,762C 443.686,756.688 427.519,747.188 414,733.5C 413.879,735.727 413.046,737.56 411.5,739C 405.72,739.022 401.22,736.522 398,731.5C 396.503,727.835 394.503,724.502 392,721.5C 388.862,716.564 386.862,711.231 386,705.5C 385.178,707.788 384.511,710.122 384,712.5C 381.79,713.749 379.624,713.582 377.5,712C 372.295,708.469 369.129,703.636 368,697.5C 367.478,689.83 366.978,682.163 366.5,674.5C 358.557,674.256 352.391,670.923 348,664.5C 346.149,660.797 344.315,657.13 342.5,653.5C 342.574,651.261 343.741,650.261 346,650.5C 356.099,654.157 364.765,652.157 372,644.5C 372.483,643.552 372.649,642.552 372.5,641.5C 354.136,641.325 338.136,635.159 324.5,623C 314,613.484 305.834,602.318 300,589.5C 299.945,591.885 298.778,593.219 296.5,593.5C 293.934,592.632 291.434,591.632 289,590.5C 283.3,582.247 281.466,573.247 283.5,563.5C 283.308,561.423 282.808,559.423 282,557.5C 281.277,561.918 278.943,563.251 275,561.5C 272.189,550.486 271.689,539.319 273.5,528C 270.738,520.848 269.071,513.348 268.5,505.5C 271.773,482.493 281.606,462.826 298,446.5C 307.213,438.477 317.046,431.311 327.5,425C 350.921,417.644 373.588,419.644 395.5,431C 404.517,437.13 413.017,443.964 421,451.5C 424.333,446.167 427.667,440.833 431,435.5C 440.861,424.974 450.695,414.474 460.5,404C 469.084,398.087 477.084,391.42 484.5,384C 507.205,370.627 526.039,353.127 541,331.5C 542.622,326.968 543.622,322.301 544,317.5C 547.006,315.034 550.173,314.867 553.5,317C 559.252,322.23 562.752,328.73 564,336.5C 564.853,340.469 565.519,344.469 566,348.5C 584.803,335.497 605.636,330.664 628.5,334C 632.668,334.375 636.668,335.375 640.5,337C 642.62,338.523 642.953,340.356 641.5,342.5C 635.833,346.333 630.167,350.167 624.5,354C 633.465,355.459 642.465,356.792 651.5,358C 662.633,361.151 672.133,366.984 680,375.5C 680.667,377.167 680.667,378.833 680,380.5C 675.434,381.102 670.934,382.102 666.5,383.5C 672.26,388.088 678.427,392.088 685,395.5C 688.152,384.022 693.485,373.688 701,364.5C 712.09,354.872 724.59,347.705 738.5,343C 753.756,339.781 768.756,340.781 783.5,346C 794.628,351.321 804.461,358.488 813,367.5C 820.356,376.935 824.022,387.601 824,399.5C 823.25,400.126 822.416,400.626 821.5,401C 826.344,409.877 829.177,419.377 830,429.5C 830.689,435.882 830.355,442.215 829,448.5C 825.428,450.051 822.761,449.051 821,445.5C 819.449,456.762 818.116,468.095 817,479.5C 812.572,495.599 803.739,508.766 790.5,519C 796.679,525.514 802.512,532.347 808,539.5C 817.659,547.491 828.659,551.158 841,550.5C 842.123,553.956 841.29,556.79 838.5,559C 833.431,563.517 827.765,567.017 821.5,569.5C 833.952,582.68 837.119,598.014 831,615.5C 828.936,616.591 826.769,616.758 824.5,616C 822.641,614.442 821.141,612.609 820,610.5C 818.182,616.246 818.015,622.08 819.5,628C 818.701,634.265 817.535,640.432 816,646.5C 814.534,648.325 812.701,648.825 810.5,648C 808.251,646.255 806.584,644.088 805.5,641.5C 801.758,654.155 797.258,666.488 792,678.5C 784.048,689.453 775.715,700.12 767,710.5C 761.288,716.879 754.955,722.546 748,727.5C 747.519,731.531 746.853,735.531 746,739.5C 730.529,766.986 707.029,781.319 675.5,782.5C 675.334,789.175 675.5,795.842 676,802.5C 680.472,813.582 685.138,824.582 690,835.5C 695.95,841.906 701.784,848.406 707.5,855C 717.497,861.589 728.497,865.589 740.5,867C 754.355,872.508 768.021,878.508 781.5,885C 783.167,886.667 784.833,888.333 786.5,890C 791.335,891.914 795.669,894.581 799.5,898C 809.024,908.876 817.191,920.709 824,933.5C 830.285,953.304 835.952,973.304 841,993.5C 841.5,1003.49 841.666,1013.49 841.5,1023.5 Z"/></g>
<g><path style="opacity:1" fill="#f9eeb9" d="M 554.5,325.5 C 555.537,326.93 556.204,328.597 556.5,330.5C 556.333,341.505 556.5,352.505 557,363.5C 557.561,364.022 558.228,364.355 559,364.5C 560.684,362.983 562.184,361.317 563.5,359.5C 582.107,344.138 603.44,338.304 627.5,342C 616.151,346.184 607.818,353.684 602.5,364.5C 605.628,368.618 608.294,368.285 610.5,363.5C 611.548,364.383 612.715,365.05 614,365.5C 619.389,363.647 624.889,362.313 630.5,361.5C 643.045,362.139 654.378,366.139 664.5,373.5C 658.843,375.602 653.51,378.269 648.5,381.5C 649.803,383.937 651.47,386.104 653.5,388C 665.562,394.031 677.562,400.031 689.5,406C 695.82,412.501 702.82,418.001 710.5,422.5C 711.683,423.504 713.016,424.338 714.5,425C 723.697,433.863 732.531,443.03 741,452.5C 746.854,461.557 752.688,470.557 758.5,479.5C 757.778,479.918 757.278,480.584 757,481.5C 750.178,473.188 743.844,464.521 738,455.5C 726.471,443.637 714.638,432.137 702.5,421C 689.333,411.913 675.667,403.58 661.5,396C 657.796,394.929 654.129,394.762 650.5,395.5C 648.705,393.297 646.371,392.131 643.5,392C 636.522,391.043 629.522,390.209 622.5,389.5C 622.291,388.914 621.957,388.414 621.5,388C 626.9,383.803 632.9,380.636 639.5,378.5C 640.594,377.132 640.26,375.965 638.5,375C 626.663,371.275 614.663,370.608 602.5,373C 598.667,375.5 594.833,378 591,380.5C 590.333,378.833 590.333,377.167 591,375.5C 593.567,367.359 597.9,360.359 604,354.5C 604.684,353.216 604.517,352.049 603.5,351C 592.032,349.517 581.699,352.184 572.5,359C 566.62,365.18 560.453,371.014 554,376.5C 552.825,367.234 551.825,357.9 551,348.5C 550.624,345.99 549.79,343.657 548.5,341.5C 545.576,348.682 542.076,355.682 538,362.5C 535.618,365.427 533.118,368.261 530.5,371C 517.264,380.56 503.264,388.893 488.5,396C 478.911,403.42 468.911,410.253 458.5,416.5C 457.893,416.376 457.56,416.043 457.5,415.5C 459.334,413.495 461.001,411.328 462.5,409C 471.062,403.114 479.062,396.447 486.5,389C 503.525,378.465 518.858,365.965 532.5,351.5C 534.735,350.772 536.568,349.439 538,347.5C 542.727,341.103 547.06,334.436 551,327.5C 551.816,326.177 552.983,325.511 554.5,325.5 Z"/></g>
<g><path style="opacity:1" fill="#e0cc7e" d="M 556.5,330.5 C 557.956,333.614 559.122,336.948 560,340.5C 560.5,346.825 560.666,353.158 560.5,359.5C 561.5,359.5 562.5,359.5 563.5,359.5C 562.184,361.317 560.684,362.983 559,364.5C 558.228,364.355 557.561,364.022 557,363.5C 556.5,352.505 556.333,341.505 556.5,330.5 Z"/></g>
<g><path style="opacity:1" fill="#b1a163" d="M 626.5,339.5 C 616.482,339.41 606.482,339.743 596.5,340.5C 602.26,339 608.26,338.333 614.5,338.5C 618.681,338.501 622.681,338.834 626.5,339.5 Z"/></g>
<g><path style="opacity:1" fill="#d3c177" d="M 554.5,325.5 C 552.983,325.511 551.816,326.177 551,327.5C 547.06,334.436 542.727,341.103 538,347.5C 536.568,349.439 534.735,350.772 532.5,351.5C 536.16,345.537 540.326,339.87 545,334.5C 546.777,330.294 547.944,325.961 548.5,321.5C 551.292,321.622 553.292,322.956 554.5,325.5 Z"/></g>
<g><path style="opacity:1" fill="#efda85" d="M 758.5,479.5 C 765.96,492.114 773.627,504.447 781.5,516.5C 789.863,527.041 798.863,537.208 808.5,547C 816.086,551.634 824.419,554.467 833.5,555.5C 832.717,557.288 831.384,558.288 829.5,558.5C 821.179,557.777 813.513,559.611 806.5,564C 810.547,569.258 814.713,574.425 819,579.5C 818.842,582.502 818.342,585.502 817.5,588.5C 812.627,588.12 807.794,587.453 803,586.5C 801.274,586.946 799.774,587.779 798.5,589C 799.667,590.833 800.833,592.667 802,594.5C 802.088,599.65 802.921,604.65 804.5,609.5C 803.277,610.614 801.944,610.781 800.5,610C 799,608.5 797.5,607 796,605.5C 795.667,605.833 795.333,606.167 795,606.5C 793.071,621.142 789.738,635.475 785,649.5C 779.467,657.42 775.467,666.086 773,675.5C 765.951,691.361 755.784,704.694 742.5,715.5C 740.659,713.151 739.326,710.485 738.5,707.5C 741.262,705.275 744.262,703.275 747.5,701.5C 743.88,700.707 740.213,700.707 736.5,701.5C 735.762,693.841 735.596,686.174 736,678.5C 744.197,671.83 749.697,663.496 752.5,653.5C 754.577,648.501 756.244,643.334 757.5,638C 756.76,633.151 755.926,628.317 755,623.5C 750.584,615.667 745.918,608 741,600.5C 735.591,594.212 728.758,590.712 720.5,590C 712.104,585.14 703.77,580.307 695.5,575.5C 696.167,575.5 696.833,575.5 697.5,575.5C 701.119,576.244 704.785,576.577 708.5,576.5C 708.714,574.856 708.38,573.356 707.5,572C 703.11,571.741 699.11,570.574 695.5,568.5C 697.746,567.79 700.08,567.29 702.5,567C 711.353,560.303 720.02,553.47 728.5,546.5C 733.875,540.04 734.709,533.04 731,525.5C 728.916,522.601 726.749,519.934 724.5,517.5C 726.144,518.366 727.811,518.866 729.5,519C 722.502,509.601 713.835,507.601 703.5,513C 696.47,520.365 689.136,527.365 681.5,534C 678.134,535.566 674.634,536.733 671,537.5C 668.851,537.342 667.017,536.508 665.5,535C 664.167,534.333 662.833,534.333 661.5,535C 662.851,538.195 665.185,540.028 668.5,540.5C 667.028,552.415 671.028,562.082 680.5,569.5C 680.44,570.043 680.107,570.376 679.5,570.5C 675.09,568.643 671.09,566.143 667.5,563C 661.8,561.475 656.134,559.975 650.5,558.5C 642.949,558.618 636.615,561.285 631.5,566.5C 629.345,566.372 627.345,566.872 625.5,568C 619.31,575.189 612.81,582.022 606,588.5C 605.667,590.167 605.333,591.833 605,593.5C 595.36,604.473 585.027,614.806 574,624.5C 570.575,628.919 567.575,633.585 565,638.5C 564.667,640.5 564.333,642.5 564,644.5C 560.157,651.989 556.824,659.656 554,667.5C 551.962,671.952 552.128,676.285 554.5,680.5C 553.943,686.625 551.109,691.292 546,694.5C 543.366,699.988 541.866,705.822 541.5,712C 542.35,717.201 544.183,722.034 547,726.5C 550.699,731.027 554.532,735.361 558.5,739.5C 563.694,746.098 569.36,752.265 575.5,758C 589.483,764.824 603.816,770.824 618.5,776C 628.495,777.612 638.495,779.112 648.5,780.5C 627.808,784.955 607.141,784.455 586.5,779C 566.914,776.584 547.248,774.917 527.5,774C 522.355,773.405 517.355,772.238 512.5,770.5C 511.304,770.846 511.304,771.346 512.5,772C 515.661,773.413 518.661,775.08 521.5,777C 525.137,777.717 528.804,778.217 532.5,778.5C 539.486,777.542 546.486,777.376 553.5,778C 585.286,785.718 617.452,787.885 650,784.5C 655.834,785.392 661.668,785.892 667.5,786C 668.163,784.482 669.163,783.315 670.5,782.5C 670.099,790.585 670.599,798.585 672,806.5C 676.365,817.288 681.032,827.955 686,838.5C 690.69,842.527 694.69,847.194 698,852.5C 708.838,864.502 722.338,871.002 738.5,872C 751.881,876.859 764.881,882.525 777.5,889C 784.787,893.987 791.953,899.154 799,904.5C 804.087,912.341 809.42,920.008 815,927.5C 823.485,946.1 829.819,965.434 834,985.5C 836.258,998.053 837.092,1010.72 836.5,1023.5C 787.833,1023.5 739.167,1023.5 690.5,1023.5C 697.861,983.013 692.028,944.68 673,908.5C 663.621,892.952 651.788,879.452 637.5,868C 627.704,863.621 617.704,859.621 607.5,856C 597.167,855.333 586.833,855.333 576.5,856C 570.657,858.164 564.657,859.831 558.5,861C 550.251,866.578 542.584,872.912 535.5,880C 532.554,880.806 529.888,882.139 527.5,884C 522.7,889.802 517.533,895.302 512,900.5C 502.116,917.05 495.116,934.717 491,953.5C 487.63,956.535 484.63,959.868 482,963.5C 480.094,969.902 477.427,975.902 474,981.5C 473.394,987.815 471.727,993.815 469,999.5C 468.168,1007.48 467.668,1015.48 467.5,1023.5C 412.5,1023.5 357.5,1023.5 302.5,1023.5C 302.5,1020.5 302.5,1017.5 302.5,1014.5C 299.915,1014.57 297.582,1015.07 295.5,1016C 301.467,1003.89 307.801,992.061 314.5,980.5C 309.755,980.478 305.255,981.478 301,983.5C 300.833,982.833 300.667,982.167 300.5,981.5C 303.942,971.876 308.109,962.543 313,953.5C 319.266,943.303 326.266,933.636 334,924.5C 342.86,914.306 352.36,904.806 362.5,896C 367.249,892.931 372.249,890.264 377.5,888C 385.59,885.581 393.757,883.415 402,881.5C 420.149,872.845 438.982,866.012 458.5,861C 465.75,857.461 472.583,853.294 479,848.5C 483.206,841.288 488.539,834.955 495,829.5C 495.333,827.167 495.667,824.833 496,822.5C 498.848,815.582 502.182,808.916 506,802.5C 509.13,792.534 509.297,782.534 506.5,772.5C 509.173,772.316 509.84,771.149 508.5,769C 489.361,761.765 470.694,753.431 452.5,744C 440.626,735.126 430.459,724.626 422,712.5C 418.539,704.658 416.372,696.491 415.5,688C 414.5,687.333 413.5,687.333 412.5,688C 409.438,693.73 405.604,698.897 401,703.5C 394.901,692.353 394.068,680.853 398.5,669C 396.5,668.333 394.5,668.333 392.5,669C 390.954,671.257 389.288,673.424 387.5,675.5C 386.289,674.126 385.289,672.626 384.5,671C 385.161,668.536 385.661,666.036 386,663.5C 390.583,659.588 394.417,655.088 397.5,650C 392.203,650.883 386.869,651.549 381.5,652C 385.104,646.942 389.271,642.442 394,638.5C 393.851,626.183 393.518,613.85 393,601.5C 392.814,598.964 392.314,596.631 391.5,594.5C 391.136,583.323 392.136,572.323 394.5,561.5C 395.654,555.013 395.821,548.346 395,541.5C 394.768,540.263 394.268,539.263 393.5,538.5C 393.27,533.117 391.77,528.117 389,523.5C 384.287,517.243 379.454,511.076 374.5,505C 369.167,500.333 363.833,495.667 358.5,491C 353.613,488.723 348.613,486.723 343.5,485C 341.741,484.202 340.074,484.369 338.5,485.5C 348.929,487.639 357.929,492.305 365.5,499.5C 357.759,503.134 350.925,508.134 345,514.5C 342.172,518.302 341.839,522.302 344,526.5C 346.797,525.484 348.63,526.484 349.5,529.5C 343.01,541.403 342.844,553.403 349,565.5C 352.086,569.163 353.419,568.163 353,562.5C 353.718,561.549 354.551,561.383 355.5,562C 360.03,571.393 366.03,579.726 373.5,587C 374.745,587.791 376.078,588.291 377.5,588.5C 377.414,589.496 377.748,590.329 378.5,591C 380.134,591.494 381.801,591.66 383.5,591.5C 382.73,599.138 382.73,606.804 383.5,614.5C 357.856,617.845 338.189,608.512 324.5,586.5C 323.302,586.06 322.135,585.727 321,585.5C 316.413,577.996 312.08,570.329 308,562.5C 306.789,556.868 304.789,551.534 302,546.5C 300.676,545.12 299.343,544.786 298,545.5C 297.667,548.5 297.333,551.5 297,554.5C 294.802,550.406 293.302,546.073 292.5,541.5C 293.978,536.588 294.978,531.588 295.5,526.5C 294.127,526.343 292.793,526.51 291.5,527C 289.289,528.721 287.289,530.721 285.5,533C 284.5,533.667 283.5,533.667 282.5,533C 283.534,528.069 283.534,522.902 282.5,517.5C 283.675,513.817 285.341,510.484 287.5,507.5C 288.111,504.105 289.944,501.438 293,499.5C 294.913,493.906 293.08,491.739 287.5,493C 283.084,495.412 279.251,498.578 276,502.5C 275.505,500.527 275.338,498.527 275.5,496.5C 280.241,476.348 290.575,459.681 306.5,446.5C 303.078,451.769 299.411,456.936 295.5,462C 297.553,462.325 299.553,461.991 301.5,461C 306.014,457.909 310.347,454.575 314.5,451C 315.744,450.544 316.577,451.044 317,452.5C 323.493,447.005 330.993,443.839 339.5,443C 348.674,442.627 357.841,442.127 367,441.5C 370.258,441.493 373.425,441.993 376.5,443C 385.386,446.943 394.386,450.61 403.5,454C 407.699,458.534 412.199,462.701 417,466.5C 418.043,463.243 418.543,459.91 418.5,456.5C 421.935,458.81 423.435,462.144 423,466.5C 424.835,468.449 426.001,470.783 426.5,473.5C 426.833,472.667 427.167,471.833 427.5,471C 425.793,468.444 424.793,465.611 424.5,462.5C 426.056,453.715 429.556,445.715 435,438.5C 442.73,430.938 450.23,423.272 457.5,415.5C 457.56,416.043 457.893,416.376 458.5,416.5C 468.911,410.253 478.911,403.42 488.5,396C 503.264,388.893 517.264,380.56 530.5,371C 533.118,368.261 535.618,365.427 538,362.5C 542.076,355.682 545.576,348.682 548.5,341.5C 549.79,343.657 550.624,345.99 551,348.5C 551.825,357.9 552.825,367.234 554,376.5C 560.453,371.014 566.62,365.18 572.5,359C 581.699,352.184 592.032,349.517 603.5,351C 604.517,352.049 604.684,353.216 604,354.5C 597.9,360.359 593.567,367.359 591,375.5C 590.333,377.167 590.333,378.833 591,380.5C 594.833,378 598.667,375.5 602.5,373C 614.663,370.608 626.663,371.275 638.5,375C 640.26,375.965 640.594,377.132 639.5,378.5C 632.9,380.636 626.9,383.803 621.5,388C 621.957,388.414 622.291,388.914 622.5,389.5C 629.522,390.209 636.522,391.043 643.5,392C 646.371,392.131 648.705,393.297 650.5,395.5C 654.129,394.762 657.796,394.929 661.5,396C 675.667,403.58 689.333,411.913 702.5,421C 714.638,432.137 726.471,443.637 738,455.5C 743.844,464.521 750.178,473.188 757,481.5C 757.278,480.584 757.778,479.918 758.5,479.5 Z"/></g>
<g><path style="opacity:1" fill="#dfcb7e" d="M 626.5,339.5 C 629.247,339.187 631.914,339.52 634.5,340.5C 628.043,345.235 621.376,349.735 614.5,354C 610.62,356.847 610.62,359.347 614.5,361.5C 618.436,360.446 622.436,359.779 626.5,359.5C 634.419,361.195 642.419,362.361 650.5,363C 656.446,365.092 662.113,367.759 667.5,371C 669.585,372.041 671.252,373.541 672.5,375.5C 667.751,377.771 662.751,379.271 657.5,380C 654.959,381.848 653.959,384.348 654.5,387.5C 656.857,387.337 659.19,387.503 661.5,388C 670.276,392.835 678.943,397.668 687.5,402.5C 695.354,408.931 703.02,415.597 710.5,422.5C 702.82,418.001 695.82,412.501 689.5,406C 677.562,400.031 665.562,394.031 653.5,388C 651.47,386.104 649.803,383.937 648.5,381.5C 653.51,378.269 658.843,375.602 664.5,373.5C 654.378,366.139 643.045,362.139 630.5,361.5C 624.889,362.313 619.389,363.647 614,365.5C 612.715,365.05 611.548,364.383 610.5,363.5C 608.294,368.285 605.628,368.618 602.5,364.5C 607.818,353.684 616.151,346.184 627.5,342C 603.44,338.304 582.107,344.138 563.5,359.5C 564.32,357.86 565.153,356.193 566,354.5C 575.259,347.805 585.426,343.138 596.5,340.5C 606.482,339.743 616.482,339.41 626.5,339.5 Z"/></g>
<g><path style="opacity:1" fill="#f5ebb8" d="M 809.5,372.5 C 807.034,373.634 804.367,373.801 801.5,373C 792.928,367.881 783.928,363.548 774.5,360C 758.668,356.388 743.668,358.388 729.5,366C 718.814,372.349 708.98,379.849 700,388.5C 695.892,396.759 693.725,396.092 693.5,386.5C 697.473,378.062 702.806,370.562 709.5,364C 716.044,360.784 722.044,356.784 727.5,352C 759.836,339.627 787.169,346.461 809.5,372.5 Z"/></g>
<g><path style="opacity:1" fill="#eed985" d="M 809.5,372.5 C 813.734,376.968 816.401,382.301 817.5,388.5C 817.649,389.552 817.483,390.552 817,391.5C 815.509,389.996 813.676,389.163 811.5,389C 805.506,387.888 799.506,387.221 793.5,387C 796.266,388.467 798.766,390.3 801,392.5C 806.269,400.808 809.435,409.808 810.5,419.5C 806.821,419.637 803.321,418.971 800,417.5C 799.013,431.15 798.346,444.817 798,458.5C 794.095,474.877 785.595,488.21 772.5,498.5C 768.663,492.83 765.33,486.83 762.5,480.5C 764.818,478.815 765.818,476.481 765.5,473.5C 769.118,463.864 769.451,454.03 766.5,444C 766.93,442.566 767.764,441.399 769,440.5C 771,442.5 773,444.5 775,446.5C 775.465,441.615 774.965,436.948 773.5,432.5C 772.538,429.243 771.038,426.243 769,423.5C 765.651,420.318 762.484,416.985 759.5,413.5C 761.918,412.585 763.918,411.085 765.5,409C 762.13,406.995 758.796,404.995 755.5,403C 751.914,401.892 748.247,401.392 744.5,401.5C 753.534,388.815 765.867,382.148 781.5,381.5C 781.5,380.5 781.5,379.5 781.5,378.5C 756.922,380.073 741.255,392.74 734.5,416.5C 732.689,418.385 731.522,420.719 731,423.5C 730.333,428.167 729.667,432.833 729,437.5C 726.815,436.072 724.815,434.405 723,432.5C 721.439,429.217 719.273,426.383 716.5,424C 706.645,416.967 697.645,409.134 689.5,400.5C 689.446,395.341 690.779,390.675 693.5,386.5C 693.725,396.092 695.892,396.759 700,388.5C 708.98,379.849 718.814,372.349 729.5,366C 743.668,358.388 758.668,356.388 774.5,360C 783.928,363.548 792.928,367.881 801.5,373C 804.367,373.801 807.034,373.634 809.5,372.5 Z"/></g>
<g><path style="opacity:1" fill="#ccb650" d="M 817.5,388.5 C 818.434,389.568 818.768,390.901 818.5,392.5C 814.915,391.417 811.249,390.751 807.5,390.5C 809.629,395.15 812.795,399.15 817,402.5C 819.194,406.749 821.194,411.082 823,415.5C 824.332,424.475 824.998,433.475 825,442.5C 823.533,439.734 821.7,437.234 819.5,435C 817.866,434.506 816.199,434.34 814.5,434.5C 815.002,446.822 814.502,459.155 813,471.5C 810.505,490.15 801.339,504.483 785.5,514.5C 784.5,514.5 783.5,514.5 782.5,514.5C 782.649,513.448 782.483,512.448 782,511.5C 777.495,508.159 774.328,503.826 772.5,498.5C 785.595,488.21 794.095,474.877 798,458.5C 798.346,444.817 799.013,431.15 800,417.5C 803.321,418.971 806.821,419.637 810.5,419.5C 809.435,409.808 806.269,400.808 801,392.5C 798.766,390.3 796.266,388.467 793.5,387C 799.506,387.221 805.506,387.888 811.5,389C 813.676,389.163 815.509,389.996 817,391.5C 817.483,390.552 817.649,389.552 817.5,388.5 Z"/></g>
<g><path style="opacity:1" fill="#201c14" d="M 744.5,401.5 C 740.919,406.328 737.585,411.328 734.5,416.5C 741.255,392.74 756.922,380.073 781.5,378.5C 781.5,379.5 781.5,380.5 781.5,381.5C 765.867,382.148 753.534,388.815 744.5,401.5 Z"/></g>
<g><path style="opacity:1" fill="#f74250" d="M 744.5,401.5 C 748.247,401.392 751.914,401.892 755.5,403C 758.796,404.995 762.13,406.995 765.5,409C 763.918,411.085 761.918,412.585 759.5,413.5C 762.484,416.985 765.651,420.318 769,423.5C 771.038,426.243 772.538,429.243 773.5,432.5C 770.067,429.17 766.734,425.67 763.5,422C 759.175,420.308 755.009,420.474 751,422.5C 747.374,421.856 744.374,420.189 742,417.5C 739.65,418.504 737.316,419.504 735,420.5C 734.427,425.588 734.927,430.588 736.5,435.5C 735.037,437.946 735.204,440.28 737,442.5C 742.201,451.013 749.701,454.18 759.5,452C 758.277,454.944 756.444,457.444 754,459.5C 753.333,460.833 753.333,462.167 754,463.5C 758.087,466.916 761.42,470.916 764,475.5C 764.278,474.584 764.778,473.918 765.5,473.5C 765.818,476.481 764.818,478.815 762.5,480.5C 755.197,471.251 748.364,461.584 742,451.5C 737.284,448.451 733.618,444.451 731,439.5C 730.674,431.605 731.84,423.938 734.5,416.5C 737.585,411.328 740.919,406.328 744.5,401.5 Z"/></g>
<g><path style="opacity:1" fill="#fb919a" d="M 773.5,432.5 C 774.965,436.948 775.465,441.615 775,446.5C 773,444.5 771,442.5 769,440.5C 767.764,441.399 766.93,442.566 766.5,444C 769.451,454.03 769.118,463.864 765.5,473.5C 764.778,473.918 764.278,474.584 764,475.5C 761.42,470.916 758.087,466.916 754,463.5C 753.333,462.167 753.333,460.833 754,459.5C 756.444,457.444 758.277,454.944 759.5,452C 749.701,454.18 742.201,451.013 737,442.5C 735.204,440.28 735.037,437.946 736.5,435.5C 734.927,430.588 734.427,425.588 735,420.5C 737.316,419.504 739.65,418.504 742,417.5C 744.374,420.189 747.374,421.856 751,422.5C 755.009,420.474 759.175,420.308 763.5,422C 766.734,425.67 770.067,429.17 773.5,432.5 Z"/></g>
<g><path style="opacity:1" fill="#f8edb9" d="M 418.5,456.5 C 418.543,459.91 418.043,463.243 417,466.5C 412.199,462.701 407.699,458.534 403.5,454C 394.386,450.61 385.386,446.943 376.5,443C 373.425,441.993 370.258,441.493 367,441.5C 357.841,442.127 348.674,442.627 339.5,443C 330.993,443.839 323.493,447.005 317,452.5C 316.577,451.044 315.744,450.544 314.5,451C 310.347,454.575 306.014,457.909 301.5,461C 299.553,461.991 297.553,462.325 295.5,462C 299.411,456.936 303.078,451.769 306.5,446.5C 307.96,444.537 309.627,442.704 311.5,441C 316.435,438.394 321.102,435.394 325.5,432C 336.68,425.782 348.68,423.782 361.5,426C 367.037,427.726 372.704,428.726 378.5,429C 382.749,431.194 387.082,433.194 391.5,435C 396.558,439.057 401.892,442.724 407.5,446C 411.009,449.676 414.676,453.176 418.5,456.5 Z"/></g>
<g><path style="opacity:1" fill="#423724" d="M 689.5,400.5 C 697.645,409.134 706.645,416.967 716.5,424C 719.273,426.383 721.439,429.217 723,432.5C 724.815,434.405 726.815,436.072 729,437.5C 729.667,432.833 730.333,428.167 731,423.5C 731.522,420.719 732.689,418.385 734.5,416.5C 731.84,423.938 730.674,431.605 731,439.5C 733.618,444.451 737.284,448.451 742,451.5C 748.364,461.584 755.197,471.251 762.5,480.5C 765.33,486.83 768.663,492.83 772.5,498.5C 774.328,503.826 777.495,508.159 782,511.5C 782.483,512.448 782.649,513.448 782.5,514.5C 783.5,514.5 784.5,514.5 785.5,514.5C 784.167,515.167 782.833,515.833 781.5,516.5C 773.627,504.447 765.96,492.114 758.5,479.5C 752.688,470.557 746.854,461.557 741,452.5C 732.531,443.03 723.697,433.863 714.5,425C 713.016,424.338 711.683,423.504 710.5,422.5C 703.02,415.597 695.354,408.931 687.5,402.5C 688.167,401.833 688.833,401.167 689.5,400.5 Z"/></g>
<g><path style="opacity:1" fill="#c9b451" d="M 287.5,507.5 C 288.085,504.739 287.085,503.073 284.5,502.5C 280.285,503.878 277.119,506.545 275,510.5C 274.185,505.648 274.352,500.981 275.5,496.5C 275.338,498.527 275.505,500.527 276,502.5C 279.251,498.578 283.084,495.412 287.5,493C 293.08,491.739 294.913,493.906 293,499.5C 289.944,501.438 288.111,504.105 287.5,507.5 Z"/></g>
<g><path style="opacity:1" fill="#fa4150" d="M 365.5,499.5 C 375.893,508.291 384.393,518.624 391,530.5C 391.495,532.473 391.662,534.473 391.5,536.5C 391.5,539.167 391.5,541.833 391.5,544.5C 387.718,558.531 386.052,572.865 386.5,587.5C 383.518,587.963 380.518,588.296 377.5,588.5C 376.078,588.291 374.745,587.791 373.5,587C 366.03,579.726 360.03,571.393 355.5,562C 354.551,561.383 353.718,561.549 353,562.5C 353.419,568.163 352.086,569.163 349,565.5C 342.844,553.403 343.01,541.403 349.5,529.5C 348.63,526.484 346.797,525.484 344,526.5C 341.839,522.302 342.172,518.302 345,514.5C 350.925,508.134 357.759,503.134 365.5,499.5 Z"/></g>
<g><path style="opacity:1" fill="#fb919a" d="M 363.5,506.5 C 364.675,506.281 365.675,506.614 366.5,507.5C 370.086,515.253 375.586,521.253 383,525.5C 384.628,531.888 387.128,537.888 390.5,543.5C 386.373,553.795 379.54,561.795 370,567.5C 368.233,566.66 366.899,565.327 366,563.5C 365.152,560.44 364.152,557.44 363,554.5C 362.814,550.484 362.814,546.484 363,542.5C 360.815,543.928 358.815,545.595 357,547.5C 355.527,551.779 353.527,555.779 351,559.5C 345.585,545.004 348.418,532.504 359.5,522C 354.783,521.524 350.117,521.524 345.5,522C 346.77,518.797 348.77,516.13 351.5,514C 355.093,510.711 359.093,508.211 363.5,506.5 Z"/></g>
<g><path style="opacity:1" fill="#0e0906" d="M 724.5,517.5 C 721.887,516.565 719.221,516.398 716.5,517C 720.523,520.556 722.689,525.056 723,530.5C 723.333,536.167 723.667,541.833 724,547.5C 725.356,546.62 726.856,546.286 728.5,546.5C 720.02,553.47 711.353,560.303 702.5,567C 700.08,567.29 697.746,567.79 695.5,568.5C 692.111,568.368 688.777,568.201 685.5,568C 688.888,570.361 692.554,572.194 696.5,573.5C 697.298,573.957 697.631,574.624 697.5,575.5C 696.833,575.5 696.167,575.5 695.5,575.5C 690.423,573.914 685.423,571.914 680.5,569.5C 671.028,562.082 667.028,552.415 668.5,540.5C 665.185,540.028 662.851,538.195 661.5,535C 662.833,534.333 664.167,534.333 665.5,535C 667.017,536.508 668.851,537.342 671,537.5C 674.634,536.733 678.134,535.566 681.5,534C 689.136,527.365 696.47,520.365 703.5,513C 713.835,507.601 722.502,509.601 729.5,519C 727.811,518.866 726.144,518.366 724.5,517.5 Z"/></g>
<g><path style="opacity:1" fill="#443523" d="M 393.5,538.5 C 393.657,539.873 393.49,541.207 393,542.5C 392.809,540.292 392.309,538.292 391.5,536.5C 391.662,534.473 391.495,532.473 391,530.5C 384.393,518.624 375.893,508.291 365.5,499.5C 357.929,492.305 348.929,487.639 338.5,485.5C 340.074,484.369 341.741,484.202 343.5,485C 348.613,486.723 353.613,488.723 358.5,491C 363.833,495.667 369.167,500.333 374.5,505C 379.454,511.076 384.287,517.243 389,523.5C 391.77,528.117 393.27,533.117 393.5,538.5 Z"/></g>
<g><path style="opacity:1" fill="#f1e5b3" d="M 724.5,517.5 C 726.749,519.934 728.916,522.601 731,525.5C 734.709,533.04 733.875,540.04 728.5,546.5C 726.856,546.286 725.356,546.62 724,547.5C 723.667,541.833 723.333,536.167 723,530.5C 722.689,525.056 720.523,520.556 716.5,517C 719.221,516.398 721.887,516.565 724.5,517.5 Z"/></g>
<g><path style="opacity:1" fill="#f50712" d="M 704.5,562.5 C 702.473,562.662 700.473,562.495 698.5,562C 694.419,559.298 690.086,556.964 685.5,555C 683.539,551.579 681.706,548.079 680,544.5C 679.421,543.072 679.588,541.738 680.5,540.5C 686.589,535.222 692.589,529.722 698.5,524C 703.516,520.812 708.849,518.812 714.5,518C 715.731,521.783 717.565,525.283 720,528.5C 720.667,533.833 720.667,539.167 720,544.5C 719.479,547.874 718.146,550.874 716,553.5C 712.227,556.629 708.394,559.629 704.5,562.5 Z"/></g>
<g><path style="opacity:1" fill="#cbb650" d="M 282.5,517.5 C 283.534,522.902 283.534,528.069 282.5,533C 283.5,533.667 284.5,533.667 285.5,533C 287.289,530.721 289.289,528.721 291.5,527C 292.793,526.51 294.127,526.343 295.5,526.5C 294.978,531.588 293.978,536.588 292.5,541.5C 293.302,546.073 294.802,550.406 297,554.5C 297.333,551.5 297.667,548.5 298,545.5C 299.343,544.786 300.676,545.12 302,546.5C 304.789,551.534 306.789,556.868 308,562.5C 312.08,570.329 316.413,577.996 321,585.5C 322.135,585.727 323.302,586.06 324.5,586.5C 338.189,608.512 357.856,617.845 383.5,614.5C 382.73,606.804 382.73,599.138 383.5,591.5C 381.801,591.66 380.134,591.494 378.5,591C 377.748,590.329 377.414,589.496 377.5,588.5C 380.518,588.296 383.518,587.963 386.5,587.5C 386.052,572.865 387.718,558.531 391.5,544.5C 392.486,548.97 392.819,553.637 392.5,558.5C 391.246,568.798 390.246,579.132 389.5,589.5C 389.556,591.64 390.223,593.306 391.5,594.5C 392.314,596.631 392.814,598.964 393,601.5C 393.518,613.85 393.851,626.183 394,638.5C 389.271,642.442 385.104,646.942 381.5,652C 386.869,651.549 392.203,650.883 397.5,650C 394.417,655.088 390.583,659.588 386,663.5C 385.661,666.036 385.161,668.536 384.5,671C 385.289,672.626 386.289,674.126 387.5,675.5C 389.288,673.424 390.954,671.257 392.5,669C 394.5,668.333 396.5,668.333 398.5,669C 394.068,680.853 394.901,692.353 401,703.5C 405.604,698.897 409.438,693.73 412.5,688C 413.5,687.333 414.5,687.333 415.5,688C 416.372,696.491 418.539,704.658 422,712.5C 430.459,724.626 440.626,735.126 452.5,744C 470.694,753.431 489.361,761.765 508.5,769C 509.84,771.149 509.173,772.316 506.5,772.5C 498.888,770.609 491.221,768.776 483.5,767C 468.466,759.485 453.133,752.485 437.5,746C 425.42,739.588 416.42,730.254 410.5,718C 409.216,717.316 408.049,717.483 407,718.5C 406.506,720.134 406.34,721.801 406.5,723.5C 405.833,725.833 405.167,728.167 404.5,730.5C 400.441,724.734 396.608,718.734 393,712.5C 391.812,706.222 391.312,699.888 391.5,693.5C 390.127,693.343 388.793,693.51 387.5,694C 383.957,697.582 381.29,701.749 379.5,706.5C 377.443,704.731 375.61,702.731 374,700.5C 371.957,692.271 371.29,683.938 372,675.5C 374.352,673.326 375.519,670.659 375.5,667.5C 364.449,672.144 356.116,669.144 350.5,658.5C 355.167,657.833 359.833,657.167 364.5,656.5C 374.525,652.123 379.858,644.456 380.5,633.5C 377.529,633.435 374.862,634.269 372.5,636C 368.167,636.667 363.833,636.667 359.5,636C 353.5,633.667 347.5,631.333 341.5,629C 336.692,625.692 332.025,622.192 327.5,618.5C 322.887,612.384 317.72,606.718 312,601.5C 307.801,594.851 303.968,588.018 300.5,581C 296.075,580.044 294.408,581.877 295.5,586.5C 293.408,586.439 291.908,585.439 291,583.5C 290.562,580.624 289.562,577.957 288,575.5C 287.5,564.839 287.333,554.172 287.5,543.5C 285.61,543.297 284.11,543.963 283,545.5C 281.333,548.167 279.667,550.833 278,553.5C 277.333,546.167 277.333,538.833 278,531.5C 278.836,526.497 280.336,521.83 282.5,517.5 Z"/></g>
<g><path style="opacity:1" fill="#100a05" d="M 607.5,544.5 C 605.811,545.931 603.811,546.764 601.5,547C 603.33,551.982 604.33,557.148 604.5,562.5C 603.027,567.632 601.86,572.966 601,578.5C 600.333,579.167 599.667,579.833 599,580.5C 599,577.833 599,575.167 599,572.5C 597.316,574.351 595.483,576.018 593.5,577.5C 594.167,578.5 594.833,579.5 595.5,580.5C 595,580.833 594.5,581.167 594,581.5C 583.435,579.234 572.935,576.734 562.5,574C 550.501,573.034 538.501,572.2 526.5,571.5C 526.5,570.833 526.5,570.167 526.5,569.5C 527.675,569.719 528.675,569.386 529.5,568.5C 523.912,559.688 522.079,550.021 524,539.5C 527.444,531.67 525.278,530.337 517.5,535.5C 513.439,538.44 509.105,540.607 504.5,542C 512.836,530.332 524.169,524.165 538.5,523.5C 546.285,524.424 553.951,525.924 561.5,528C 571.502,532.919 581.669,537.419 592,541.5C 594.568,541.049 596.902,540.049 599,538.5C 599.117,541.629 600.617,542.795 603.5,542C 608.099,540.402 610.932,537.235 612,532.5C 612.991,533.43 613.491,534.596 613.5,536C 611.631,538.898 609.631,541.731 607.5,544.5 Z"/></g>
<g><path style="opacity:1" fill="#f97b0a" d="M 700.5,525.5 C 712.902,525.74 718.402,532.073 717,544.5C 711.823,556.518 704.156,558.518 694,550.5C 687.953,539.951 690.12,531.618 700.5,525.5 Z"/></g>
<g><path style="opacity:1" fill="#d8000f" d="M 558.5,535.5 C 542.625,531.7 535.292,538.033 536.5,554.5C 537.054,559.489 537.388,564.489 537.5,569.5C 535.321,569.16 533.488,568.16 532,566.5C 526,555.833 526,545.167 532,534.5C 533.013,532.154 534.679,530.487 537,529.5C 544.427,530.979 551.594,532.979 558.5,535.5 Z"/></g>
<g><path style="opacity:1" fill="#eee1b0" d="M 526.5,569.5 C 525.5,569.5 524.5,569.5 523.5,569.5C 520.823,565.31 518.323,560.977 516,556.5C 515.34,549.416 515.84,542.416 517.5,535.5C 525.278,530.337 527.444,531.67 524,539.5C 522.079,550.021 523.912,559.688 529.5,568.5C 528.675,569.386 527.675,569.719 526.5,569.5 Z"/></g>
<g><path style="opacity:1" fill="#fa0512" d="M 558.5,535.5 C 564.025,536.141 569.358,537.141 574.5,538.5C 561.033,544.464 558.2,553.797 566,566.5C 576.537,574.351 585.203,572.685 592,561.5C 593.106,557.878 593.439,554.211 593,550.5C 591.311,547.333 589.478,544.333 587.5,541.5C 592.575,542.785 596.742,545.452 600,549.5C 601.727,559.542 599.227,568.375 592.5,576C 590.801,576.958 588.967,577.458 587,577.5C 579.048,576.176 571.215,574.343 563.5,572C 554.509,571.664 545.842,570.831 537.5,569.5C 537.388,564.489 537.054,559.489 536.5,554.5C 535.292,538.033 542.625,531.7 558.5,535.5 Z"/></g>
<g><path style="opacity:1" fill="#f2f301" d="M 701.5,536.5 C 712.723,536.856 715.389,541.689 709.5,551C 700.372,553.544 696.538,550.044 698,540.5C 699.376,539.295 700.542,537.962 701.5,536.5 Z"/></g>
<g><path style="opacity:1" fill="#f87c0a" d="M 574.5,538.5 C 578.873,539.343 583.207,540.343 587.5,541.5C 589.478,544.333 591.311,547.333 593,550.5C 593.439,554.211 593.106,557.878 592,561.5C 585.203,572.685 576.537,574.351 566,566.5C 558.2,553.797 561.033,544.464 574.5,538.5 Z"/></g>
<g><path style="opacity:1" fill="#d6010f" d="M 680.5,540.5 C 679.588,541.738 679.421,543.072 680,544.5C 681.706,548.079 683.539,551.579 685.5,555C 690.086,556.964 694.419,559.298 698.5,562C 700.473,562.495 702.473,562.662 704.5,562.5C 687.003,570.755 675.67,565.422 670.5,546.5C 670.529,544.971 671.196,543.804 672.5,543C 675.154,542.059 677.821,541.226 680.5,540.5 Z"/></g>
<g><path style="opacity:1" fill="#f0e4b2" d="M 607.5,544.5 C 609.776,544.756 610.943,546.09 611,548.5C 612.17,556.813 611.17,564.813 608,572.5C 606.989,573.337 605.822,573.67 604.5,573.5C 604.5,569.833 604.5,566.167 604.5,562.5C 604.33,557.148 603.33,551.982 601.5,547C 603.811,546.764 605.811,545.931 607.5,544.5 Z"/></g>
<g><path style="opacity:1" fill="#a79552" d="M 391.5,536.5 C 392.309,538.292 392.809,540.292 393,542.5C 393.49,541.207 393.657,539.873 393.5,538.5C 394.268,539.263 394.768,540.263 395,541.5C 395.821,548.346 395.654,555.013 394.5,561.5C 394.666,555.491 394.499,549.491 394,543.5C 393.826,548.684 393.326,553.684 392.5,558.5C 392.819,553.637 392.486,548.97 391.5,544.5C 391.5,541.833 391.5,539.167 391.5,536.5 Z"/></g>
<g><path style="opacity:1" fill="#f2f701" d="M 574.5,547.5 C 585.104,546.508 589.937,551.175 589,561.5C 582.256,569.432 575.589,569.432 569,561.5C 568.333,558.833 568.333,556.167 569,553.5C 570.769,551.383 572.602,549.383 574.5,547.5 Z"/></g>
<g><path style="opacity:1" fill="#38321a" d="M 394.5,561.5 C 392.136,572.323 391.136,583.323 391.5,594.5C 390.223,593.306 389.556,591.64 389.5,589.5C 390.246,579.132 391.246,568.798 392.5,558.5C 393.326,553.684 393.826,548.684 394,543.5C 394.499,549.491 394.666,555.491 394.5,561.5 Z"/></g>
<g><path style="opacity:1" fill="#f0cd55" d="M 700.5,591.5 C 688.391,590.997 676.391,591.664 664.5,593.5C 656.814,588.311 650.647,581.644 646,573.5C 642.264,570.583 638.764,567.583 635.5,564.5C 650.56,558.843 664.227,561.343 676.5,572C 684.465,576.151 692.465,579.985 700.5,583.5C 697.987,586.287 697.987,588.953 700.5,591.5 Z"/></g>
<g><path style="opacity:1" fill="#ceaf44" d="M 635.5,564.5 C 638.764,567.583 642.264,570.583 646,573.5C 650.647,581.644 656.814,588.311 664.5,593.5C 658.313,595.039 651.979,596.539 645.5,598C 640.666,601.252 635.666,604.252 630.5,607C 625.305,610.889 622.971,616.056 623.5,622.5C 623.244,624.792 623.577,626.959 624.5,629C 629.712,632.22 635.378,633.72 641.5,633.5C 641.833,634.5 642.5,635.167 643.5,635.5C 655.966,638.107 668.633,640.44 681.5,642.5C 684.945,646.775 688.945,650.609 693.5,654C 696.206,655.908 699.206,656.741 702.5,656.5C 702.833,656.5 703.167,656.5 703.5,656.5C 707.514,656.44 710.681,654.773 713,651.5C 716.151,646.19 718.985,640.857 721.5,635.5C 726.416,632.786 730.916,629.452 735,625.5C 735.608,623.846 736.108,622.179 736.5,620.5C 737.167,620.5 737.5,620.167 737.5,619.5C 738.117,619.389 738.617,619.056 739,618.5C 739.736,615.408 739.569,612.408 738.5,609.5C 737.695,607.085 736.695,604.751 735.5,602.5C 737.371,602.859 738.871,603.859 740,605.5C 743.667,611.167 747.333,616.833 751,622.5C 754.132,632.085 754.299,641.752 751.5,651.5C 751.543,652.416 751.876,653.083 752.5,653.5C 749.697,663.496 744.197,671.83 736,678.5C 735.596,686.174 735.762,693.841 736.5,701.5C 727.169,704.092 717.835,704.092 708.5,701.5C 688.277,708.369 667.61,710.202 646.5,707C 638.015,704.236 629.348,702.236 620.5,701C 604.726,693.035 592.226,681.535 583,666.5C 582.519,661.966 584.686,659.466 589.5,659C 579.425,657.788 570.092,659.788 561.5,665C 557.848,667.274 556.015,670.441 556,674.5C 557.413,672.586 559.247,671.253 561.5,670.5C 565.524,692.738 573.024,713.738 584,733.5C 586.98,737.647 590.48,741.314 594.5,744.5C 597.55,742.451 599.883,739.784 601.5,736.5C 604.539,739.688 608.206,741.855 612.5,743C 630.951,748.831 649.618,749.831 668.5,746C 678.808,742.786 688.808,738.786 698.5,734C 711.987,725.337 725.32,716.504 738.5,707.5C 739.326,710.485 740.659,713.151 742.5,715.5C 742.643,718.385 743.643,720.718 745.5,722.5C 743.284,727.119 742.117,732.119 742,737.5C 734.863,753.636 723.363,765.47 707.5,773C 698.957,776.885 689.957,779.052 680.5,779.5C 654.368,779.255 628.701,775.755 603.5,769C 595.112,764.139 586.446,759.806 577.5,756C 571.031,750.532 564.864,744.699 559,738.5C 558.601,738.728 558.435,739.062 558.5,739.5C 554.532,735.361 550.699,731.027 547,726.5C 544.183,722.034 542.35,717.201 541.5,712C 541.866,705.822 543.366,699.988 546,694.5C 551.109,691.292 553.943,686.625 554.5,680.5C 552.128,676.285 551.962,671.952 554,667.5C 556.824,659.656 560.157,651.989 564,644.5C 564.333,642.5 564.667,640.5 565,638.5C 567.575,633.585 570.575,628.919 574,624.5C 585.027,614.806 595.36,604.473 605,593.5C 605.333,591.833 605.667,590.167 606,588.5C 612.81,582.022 619.31,575.189 625.5,568C 627.345,566.872 629.345,566.372 631.5,566.5C 633.062,566.267 634.395,565.6 635.5,564.5 Z"/></g>
<g><path style="opacity:1" fill="#e6daaa" d="M 695.5,568.5 C 699.11,570.574 703.11,571.741 707.5,572C 708.38,573.356 708.714,574.856 708.5,576.5C 704.785,576.577 701.119,576.244 697.5,575.5C 697.631,574.624 697.298,573.957 696.5,573.5C 692.554,572.194 688.888,570.361 685.5,568C 688.777,568.201 692.111,568.368 695.5,568.5 Z"/></g>
<g><path style="opacity:1" fill="#cab550" d="M 829.5,558.5 C 825.099,562.615 819.766,564.615 813.5,564.5C 813.34,566.199 813.506,567.866 814,569.5C 826.463,579.678 831.13,592.678 828,608.5C 827.692,609.308 827.192,609.975 826.5,610.5C 824.9,607.06 823.067,603.726 821,600.5C 818.234,597.019 814.734,595.519 810.5,596C 808.557,600.467 809.724,603.967 814,606.5C 814.981,618.267 814.315,629.933 812,641.5C 810.088,637.313 808.421,632.979 807,628.5C 805.211,626.771 803.044,626.104 800.5,626.5C 800.804,632.577 800.304,638.577 799,644.5C 796.244,654.872 792.578,664.872 788,674.5C 779.057,687.377 769.391,699.711 759,711.5C 754.561,715.295 750.061,718.961 745.5,722.5C 743.643,720.718 742.643,718.385 742.5,715.5C 755.784,704.694 765.951,691.361 773,675.5C 775.467,666.086 779.467,657.42 785,649.5C 789.738,635.475 793.071,621.142 795,606.5C 795.333,606.167 795.667,605.833 796,605.5C 797.5,607 799,608.5 800.5,610C 801.944,610.781 803.277,610.614 804.5,609.5C 802.921,604.65 802.088,599.65 802,594.5C 800.833,592.667 799.667,590.833 798.5,589C 799.774,587.779 801.274,586.946 803,586.5C 807.794,587.453 812.627,588.12 817.5,588.5C 818.342,585.502 818.842,582.502 819,579.5C 814.713,574.425 810.547,569.258 806.5,564C 813.513,559.611 821.179,557.777 829.5,558.5 Z"/></g>
<g><path style="opacity:1" fill="#746b46" d="M 523.5,569.5 C 524.5,569.5 525.5,569.5 526.5,569.5C 526.5,570.167 526.5,570.833 526.5,571.5C 525.022,571.762 523.689,571.429 522.5,570.5C 522.624,569.893 522.957,569.56 523.5,569.5 Z"/></g>
<g><path style="opacity:1" fill="#bc9f32" d="M 680.5,569.5 C 685.423,571.914 690.423,573.914 695.5,575.5C 703.77,580.307 712.104,585.14 720.5,590C 728.758,590.712 735.591,594.212 741,600.5C 745.918,608 750.584,615.667 755,623.5C 755.926,628.317 756.76,633.151 757.5,638C 756.244,643.334 754.577,648.501 752.5,653.5C 751.876,653.083 751.543,652.416 751.5,651.5C 754.299,641.752 754.132,632.085 751,622.5C 747.333,616.833 743.667,611.167 740,605.5C 738.871,603.859 737.371,602.859 735.5,602.5C 734.444,599.274 732.444,596.774 729.5,595C 719.736,593.378 710.069,592.211 700.5,591.5C 697.987,588.953 697.987,586.287 700.5,583.5C 692.465,579.985 684.465,576.151 676.5,572C 664.227,561.343 650.56,558.843 635.5,564.5C 634.395,565.6 633.062,566.267 631.5,566.5C 636.615,561.285 642.949,558.618 650.5,558.5C 656.134,559.975 661.8,561.475 667.5,563C 671.09,566.143 675.09,568.643 679.5,570.5C 680.107,570.376 680.44,570.043 680.5,569.5 Z"/></g>
<g><path style="opacity:1" fill="#dd071e" d="M 700.5,591.5 C 710.069,592.211 719.736,593.378 729.5,595C 732.444,596.774 734.444,599.274 735.5,602.5C 736.695,604.751 737.695,607.085 738.5,609.5C 737.391,609.443 736.391,609.11 735.5,608.5C 734.167,608.167 732.833,607.833 731.5,607.5C 727.591,609.204 723.757,611.204 720,613.5C 715.768,624.058 711.268,634.392 706.5,644.5C 706.931,634.063 706.264,623.73 704.5,613.5C 703.91,612.234 703.41,610.901 703,609.5C 702.199,612.367 702.366,615.034 703.5,617.5C 704.48,628.484 704.48,639.484 703.5,650.5C 698.944,642.397 694.11,634.397 689,626.5C 678.002,614.668 664.502,610.335 648.5,613.5C 648.714,615.144 648.38,616.644 647.5,618C 643.007,620.079 638.674,622.412 634.5,625C 630.259,626.188 626.592,625.355 623.5,622.5C 622.971,616.056 625.305,610.889 630.5,607C 635.666,604.252 640.666,601.252 645.5,598C 651.979,596.539 658.313,595.039 664.5,593.5C 676.391,591.664 688.391,590.997 700.5,591.5 Z"/></g>
<g><path style="opacity:1" fill="#210404" d="M 731.5,607.5 C 732.833,607.833 734.167,608.167 735.5,608.5C 734.817,610.176 733.483,610.843 731.5,610.5C 731.5,609.5 731.5,608.5 731.5,607.5 Z"/></g>
<g><path style="opacity:1" fill="#930314" d="M 731.5,607.5 C 731.5,608.5 731.5,609.5 731.5,610.5C 733.483,610.843 734.817,610.176 735.5,608.5C 736.391,609.11 737.391,609.443 738.5,609.5C 739.569,612.408 739.736,615.408 739,618.5C 738.617,619.056 738.117,619.389 737.5,619.5C 736.412,615.252 733.745,613.752 729.5,615C 728.167,615.667 726.833,616.333 725.5,617C 722.744,622.935 720.577,629.101 719,635.5C 715,641.5 711,647.5 707,653.5C 706.502,650.518 706.335,647.518 706.5,644.5C 711.268,634.392 715.768,624.058 720,613.5C 723.757,611.204 727.591,609.204 731.5,607.5 Z"/></g>
<g><path style="opacity:1" fill="#940314" d="M 703.5,650.5 C 703.5,652.5 703.5,654.5 703.5,656.5C 703.167,656.5 702.833,656.5 702.5,656.5C 699.898,654.858 697.231,653.192 694.5,651.5C 688.645,644.813 682.978,637.979 677.5,631C 673.118,627.14 668.118,624.307 662.5,622.5C 659.204,623.765 655.871,624.932 652.5,626C 648.767,628.523 645.101,631.023 641.5,633.5C 635.378,633.72 629.712,632.22 624.5,629C 623.577,626.959 623.244,624.792 623.5,622.5C 626.592,625.355 630.259,626.188 634.5,625C 638.674,622.412 643.007,620.079 647.5,618C 648.38,616.644 648.714,615.144 648.5,613.5C 664.502,610.335 678.002,614.668 689,626.5C 694.11,634.397 698.944,642.397 703.5,650.5 Z"/></g>
<g><path style="opacity:1" fill="#290405" d="M 649.5,614.5 C 651.288,614.215 652.955,614.548 654.5,615.5C 653.667,615.833 652.833,616.167 652,616.5C 650.624,616.316 649.791,615.649 649.5,614.5 Z"/></g>
<g><path style="opacity:1" fill="#700211" d="M 704.5,613.5 C 703.566,614.568 703.232,615.901 703.5,617.5C 702.366,615.034 702.199,612.367 703,609.5C 703.41,610.901 703.91,612.234 704.5,613.5 Z"/></g>
<g><path style="opacity:1" fill="#8f0d14" d="M 736.5,620.5 C 736.108,622.179 735.608,623.846 735,625.5C 730.916,629.452 726.416,632.786 721.5,635.5C 722.577,629.438 724.744,623.772 728,618.5C 731.429,615.939 734.263,616.605 736.5,620.5 Z"/></g>
<g><path style="opacity:1" fill="#110503" d="M 702.5,656.5 C 699.206,656.741 696.206,655.908 693.5,654C 688.945,650.609 684.945,646.775 681.5,642.5C 677.661,635.161 671.994,629.661 664.5,626C 661.072,625.299 657.738,625.632 654.5,627C 650.386,629.284 646.72,632.117 643.5,635.5C 642.5,635.167 641.833,634.5 641.5,633.5C 645.101,631.023 648.767,628.523 652.5,626C 655.871,624.932 659.204,623.765 662.5,622.5C 668.118,624.307 673.118,627.14 677.5,631C 682.978,637.979 688.645,644.813 694.5,651.5C 697.231,653.192 699.898,654.858 702.5,656.5 Z"/></g>
<g><path style="opacity:1" fill="#910d14" d="M 681.5,642.5 C 668.633,640.44 655.966,638.107 643.5,635.5C 646.72,632.117 650.386,629.284 654.5,627C 657.738,625.632 661.072,625.299 664.5,626C 671.994,629.661 677.661,635.161 681.5,642.5 Z"/></g>
<g><path style="opacity:1" fill="#140703" d="M 704.5,613.5 C 706.264,623.73 706.931,634.063 706.5,644.5C 706.335,647.518 706.502,650.518 707,653.5C 711,647.5 715,641.5 719,635.5C 720.577,629.101 722.744,622.935 725.5,617C 726.833,616.333 728.167,615.667 729.5,615C 733.745,613.752 736.412,615.252 737.5,619.5C 737.5,620.167 737.167,620.5 736.5,620.5C 734.263,616.605 731.429,615.939 728,618.5C 724.744,623.772 722.577,629.438 721.5,635.5C 718.985,640.857 716.151,646.19 713,651.5C 710.681,654.773 707.514,656.44 703.5,656.5C 703.5,654.5 703.5,652.5 703.5,650.5C 704.48,639.484 704.48,628.484 703.5,617.5C 703.232,615.901 703.566,614.568 704.5,613.5 Z"/></g>
<g><path style="opacity:1" fill="#71652d" d="M 364.5,656.5 C 359.833,657.167 355.167,657.833 350.5,658.5C 349.957,658.44 349.624,658.107 349.5,657.5C 354.456,656.506 359.456,656.173 364.5,656.5 Z"/></g>
<g><path style="opacity:1" fill="#0e0d0b" d="M 736.5,701.5 C 740.213,700.707 743.88,700.707 747.5,701.5C 744.262,703.275 741.262,705.275 738.5,707.5C 725.32,716.504 711.987,725.337 698.5,734C 688.808,738.786 678.808,742.786 668.5,746C 649.618,749.831 630.951,748.831 612.5,743C 608.206,741.855 604.539,739.688 601.5,736.5C 599.883,739.784 597.55,742.451 594.5,744.5C 590.48,741.314 586.98,737.647 584,733.5C 573.024,713.738 565.524,692.738 561.5,670.5C 559.247,671.253 557.413,672.586 556,674.5C 556.015,670.441 557.848,667.274 561.5,665C 570.092,659.788 579.425,657.788 589.5,659C 584.686,659.466 582.519,661.966 583,666.5C 592.226,681.535 604.726,693.035 620.5,701C 629.348,702.236 638.015,704.236 646.5,707C 667.61,710.202 688.277,708.369 708.5,701.5C 717.835,704.092 727.169,704.092 736.5,701.5 Z"/></g>
<g><path style="opacity:1" fill="#cac4c5" d="M 584.5,674.5 C 583.12,674.962 582.453,675.962 582.5,677.5C 583.378,680.13 584.045,682.797 584.5,685.5C 587.237,685.599 589.904,685.265 592.5,684.5C 595.471,687.808 598.471,691.141 601.5,694.5C 590.999,704.187 586.666,716.187 588.5,730.5C 585.89,725.109 583.723,719.443 582,713.5C 581.94,706.497 581.94,699.497 582,692.5C 581.683,694.301 581.016,694.634 580,693.5C 577.972,690.437 576.306,687.104 575,683.5C 573.603,675.769 574.603,668.436 578,661.5C 579.653,666.139 581.819,670.472 584.5,674.5 Z"/></g>
<g><path style="opacity:1" fill="#f5707f" d="M 584.5,674.5 C 587.516,677.52 590.183,680.854 592.5,684.5C 589.904,685.265 587.237,685.599 584.5,685.5C 584.045,682.797 583.378,680.13 582.5,677.5C 582.453,675.962 583.12,674.962 584.5,674.5 Z"/></g>
<g><path style="opacity:1" fill="#f6f4f5" d="M 601.5,694.5 C 603.833,695.833 606.167,697.167 608.5,698.5C 610.721,702.948 612.388,707.615 613.5,712.5C 617.908,711.466 622.241,710.133 626.5,708.5C 631.465,708.631 634.965,710.964 637,715.5C 640.947,714.223 644.781,712.89 648.5,711.5C 659.781,712.905 671.114,713.571 682.5,713.5C 686.239,714.922 690.239,715.589 694.5,715.5C 702.205,714.827 709.872,713.827 717.5,712.5C 718.726,712.52 719.726,712.853 720.5,713.5C 714.006,718.915 707.006,723.581 699.5,727.5C 692.974,725.91 686.474,724.243 680,722.5C 672.439,725.365 664.939,728.365 657.5,731.5C 650.291,729.813 643.458,727.146 637,723.5C 631.765,725.245 626.432,726.579 621,727.5C 618.542,725.286 616.542,722.619 615,719.5C 613.421,721.041 611.587,722.208 609.5,723C 604.607,728.636 599.607,734.136 594.5,739.5C 591.748,736.996 589.748,733.996 588.5,730.5C 586.666,716.187 590.999,704.187 601.5,694.5 Z"/></g>
<g><path style="opacity:1" fill="#f86f7e" d="M 608.5,698.5 C 612.14,700.32 615.807,702.153 619.5,704C 629.305,706.191 638.972,708.691 648.5,711.5C 644.781,712.89 640.947,714.223 637,715.5C 634.965,710.964 631.465,708.631 626.5,708.5C 622.241,710.133 617.908,711.466 613.5,712.5C 612.388,707.615 610.721,702.948 608.5,698.5 Z"/></g>
<g><path style="opacity:1" fill="#cbcaca" d="M 720.5,713.5 C 719.726,712.853 718.726,712.52 717.5,712.5C 709.872,713.827 702.205,714.827 694.5,715.5C 690.239,715.589 686.239,714.922 682.5,713.5C 687.096,712.532 691.763,711.699 696.5,711C 700.273,709.03 704.106,707.197 708,705.5C 714.44,706.957 720.94,708.123 727.5,709C 725.138,710.511 722.805,712.011 720.5,713.5 Z"/></g>
<g><path style="opacity:1" fill="#c0bfbf" d="M 615.5,729.5 C 612.882,731.452 610.548,733.785 608.5,736.5C 605.32,736.824 604.153,735.49 605,732.5C 607.382,729.781 610.049,727.447 613,725.5C 615.02,726.032 615.853,727.365 615.5,729.5 Z"/></g>
<g><path style="opacity:1" fill="#f3f2f2" d="M 608.5,736.5 C 610.548,733.785 612.882,731.452 615.5,729.5C 616.317,731.478 617.817,732.478 620,732.5C 625.376,731.323 630.709,729.989 636,728.5C 642.998,730.833 649.998,733.166 657,735.5C 664.22,732.224 671.553,729.224 679,726.5C 683.87,726.895 688.37,728.395 692.5,731C 673.6,742.14 653.267,746.14 631.5,743C 623.714,741.042 616.047,738.875 608.5,736.5 Z"/></g>
<g><path style="opacity:1" fill="#5c5225" d="M 406.5,723.5 C 406.223,726.448 406.556,729.281 407.5,732C 406.002,732.585 405.002,732.085 404.5,730.5C 405.167,728.167 405.833,725.833 406.5,723.5 Z"/></g>
<g><path style="opacity:1" fill="#c2ad59" d="M 648.5,780.5 C 655.813,781.187 663.146,781.521 670.5,781.5C 670.5,781.833 670.5,782.167 670.5,782.5C 669.163,783.315 668.163,784.482 667.5,786C 661.668,785.892 655.834,785.392 650,784.5C 617.452,787.885 585.286,785.718 553.5,778C 546.486,777.376 539.486,777.542 532.5,778.5C 528.804,778.217 525.137,777.717 521.5,777C 518.661,775.08 515.661,773.413 512.5,772C 511.304,771.346 511.304,770.846 512.5,770.5C 517.355,772.238 522.355,773.405 527.5,774C 547.248,774.917 566.914,776.584 586.5,779C 607.141,784.455 627.808,784.955 648.5,780.5 Z"/></g>
<g><path style="opacity:1" fill="#b99d30" d="M 680.5,779.5 C 677.167,780.167 673.833,780.833 670.5,781.5C 663.146,781.521 655.813,781.187 648.5,780.5C 638.495,779.112 628.495,777.612 618.5,776C 603.816,770.824 589.483,764.824 575.5,758C 569.36,752.265 563.694,746.098 558.5,739.5C 558.435,739.062 558.601,738.728 559,738.5C 564.864,744.699 571.031,750.532 577.5,756C 586.446,759.806 595.112,764.139 603.5,769C 628.701,775.755 654.368,779.255 680.5,779.5 Z"/></g>
<g><path style="opacity:1" fill="#f9ebb4" d="M 690.5,1023.5 C 616.167,1023.5 541.833,1023.5 467.5,1023.5C 467.668,1015.48 468.168,1007.48 469,999.5C 471.727,993.815 473.394,987.815 474,981.5C 477.427,975.902 480.094,969.902 482,963.5C 484.63,959.868 487.63,956.535 491,953.5C 495.116,934.717 502.116,917.05 512,900.5C 517.533,895.302 522.7,889.802 527.5,884C 529.888,882.139 532.554,880.806 535.5,880C 542.584,872.912 550.251,866.578 558.5,861C 564.657,859.831 570.657,858.164 576.5,856C 586.833,855.333 597.167,855.333 607.5,856C 617.704,859.621 627.704,863.621 637.5,868C 651.788,879.452 663.621,892.952 673,908.5C 692.028,944.68 697.861,983.013 690.5,1023.5 Z"/></g>
</svg>
